<svg width="149" height="117" viewBox="0 0 149 117" fill="none" xmlns="http://www.w3.org/2000/svg">
<path d="M24.3402 3.04838C20.4481 2.01565 15.9038 1.10431 12.7312 3.61654C8.06867 7.30808 10.1752 14.7832 12.6932 20.2164C23.4743 43.4773 34.2553 66.7386 45.0363 90L46.2509 83.1919C46.2101 66.8182 46.54 49.2158 56.0007 35.9583C63.4456 25.5256 76.356 19.8281 88.9658 20.1963C67.4239 14.4806 45.8821 8.7646 24.3402 3.04838Z" fill="#06D6A0"/>
<path d="M88.9648 21C94.6315 22.3335 100.298 23.6669 105.965 25C100.724 22.4874 94.9009 21.1174 88.9648 21Z" fill="#2371F9"/>
<path d="M141.974 65.7421C129.796 59.5829 116.691 55.5002 103.762 51.2152C105.927 50.4979 108.086 49.765 110.228 48.9799C110.815 48.6881 122.365 44.843 125.339 39.6688C127.395 36.2325 125.61 31.8355 122.137 30.1517C117.41 28.2217 118.151 28.9143 113.957 27.8548C107.18 26.3895 100.511 24.4809 93.827 22.6475C71.5083 16.527 49.3609 9.81066 26.9256 4.11905C22.1489 2.85374 17.372 1.55063 12.5069 0.66742C10.0636 0.343726 7.5261 -0.397285 5.08865 0.269333C-1.71201 2.66695 1.59782 9.6801 3.14139 14.6294C7.67817 29.0169 13.0377 43.1556 19.8691 56.6154C25.9975 69.1488 33.2361 81.1049 41.4978 92.3396C47.0993 99.9324 52.3522 106.937 57.5838 110.815C60.1107 112.854 62.7347 114.882 65.8787 115.846C68.883 116.865 72.7 115.508 72.8176 111.945C72.0577 106.968 69.771 83.4826 67.6783 67.832C66.8882 80.4833 66.7359 95.6351 65.8996 106.591C63.4176 104.425 61.0486 101.415 59.2481 99.3449C54.9356 93.3368 42.3845 75.893 36.2789 65.4261C26.1262 47.5854 20.0002 34.2335 13.8944 16.108C13.2569 14.1411 12.557 12.1882 11.8927 10.2255C23.9306 12.723 35.7407 16.2898 47.6694 19.2603C68.6351 25.3263 89.5758 31.4856 110.667 37.1077C110.38 37.2263 110.094 37.3438 109.815 37.4578C104.564 39.4155 99.2232 41.1193 93.8822 42.8117C91.6526 43.5597 89.3563 44.45 87.7127 46.2003C85.4719 48.5021 85.0961 52.3963 87.2981 54.8489C88.4998 56.3577 90.0955 57.5023 91.9077 58.1551C93.9648 58.9921 92.9374 58.7403 97.0506 60.0331C102.719 61.7704 108.447 63.3209 114.061 65.2358C120.423 67.3835 126.694 69.8028 132.906 72.3521C133.988 72.8294 136.442 73.9362 137.085 74.4269C137.256 74.5399 137.421 74.6604 137.591 74.7746C137.819 74.98 138.035 75.1975 138.24 75.4263C138.347 75.5939 138.435 75.7391 138.491 75.8348C139.715 79.4898 139.035 85.3644 138.406 91.8153C138.184 94.9076 137.463 98.5537 136.496 104.513C136.318 105.355 136.101 106.19 135.856 107.015C131.462 106.523 120.341 101.862 113.463 99.1227C106.636 96.3118 89.6894 88.9836 77.9499 82.4001C76.7368 81.7529 75.5217 81.1073 74.3128 80.4539C75.6539 81.6905 77.0146 82.9055 78.3754 84.1207C92.9686 96.8688 109.484 107.218 127.306 114.785C133.054 117.269 140.796 118.98 144.508 112.434C146.119 109.128 146.435 105.413 146.936 101.818C146.99 101.57 147.026 101.319 147.044 101.066C147.7 96.2528 148.419 91.4412 148.78 86.5945C149.226 79.0882 149.481 69.8986 141.974 65.7421Z" fill="#2371F9"/>
</svg>
