<svg width="149" height="117" viewBox="0 0 149 117" fill="none" xmlns="http://www.w3.org/2000/svg">
<path d="M125.591 3.04838C129.484 2.01565 134.028 1.10431 137.2 3.61654C141.863 7.30808 139.756 14.7832 137.238 20.2164C126.457 43.4773 115.676 66.7386 104.895 90L103.681 83.1919C103.722 66.8182 103.392 49.2158 93.931 35.9583C86.486 25.5256 73.5756 19.8281 60.9658 20.1963C82.5077 14.4806 104.05 8.7646 125.591 3.04838Z" fill="#06D6A0"/>
<path d="M60.9658 21C55.2991 22.3335 49.6325 23.6669 43.9658 25C49.2071 22.4874 55.0298 21.1174 60.9658 21Z" fill="#2371F9"/>
<path d="M7.95805 65.7421C20.1357 59.5829 33.2408 55.5002 46.1701 51.2152C44.0049 50.4979 41.8453 49.765 39.7033 48.9799C39.1168 48.6881 27.5662 44.843 24.5926 39.6688C22.5363 36.2325 24.3219 31.8355 27.7944 30.1517C32.5212 28.2217 31.7808 28.9143 35.9744 27.8548C42.7512 26.3895 49.4202 24.4809 56.1046 22.6475C78.4233 16.527 100.571 9.81066 123.006 4.11905C127.783 2.85374 132.56 1.55063 137.425 0.66742C139.868 0.343726 142.406 -0.397285 144.843 0.269333C151.644 2.66695 148.334 9.6801 146.79 14.6294C142.253 29.0169 136.894 43.1556 130.063 56.6154C123.934 69.1488 116.696 81.1049 108.434 92.3396C102.832 99.9324 97.5795 106.937 92.3479 110.815C89.821 112.854 87.1969 114.882 84.053 115.846C81.0486 116.865 77.2317 115.508 77.1141 111.945C77.8739 106.968 80.1606 83.4826 82.2533 67.832C83.0434 80.4833 83.1957 95.6351 84.032 106.591C86.5141 104.425 88.883 101.415 90.6835 99.3449C94.996 93.3368 107.547 75.893 113.653 65.4261C123.805 47.5854 129.931 34.2335 136.037 16.108C136.675 14.1411 137.375 12.1882 138.039 10.2255C126.001 12.723 114.191 16.2898 102.262 19.2603C81.2966 25.3263 60.3558 31.4856 39.2646 37.1077C39.5518 37.2263 39.8376 37.3438 40.1168 37.4578C45.3678 39.4155 50.7085 41.1193 56.0494 42.8117C58.2791 43.5597 60.5753 44.45 62.2189 46.2003C64.4597 48.5021 64.8355 52.3963 62.6335 54.8489C61.4319 56.3577 59.8361 57.5023 58.024 58.1551C55.9669 58.9921 56.9942 58.7403 52.881 60.0331C47.2131 61.7704 41.4847 63.3209 35.8704 65.2358C29.5082 67.3835 23.2378 69.8028 17.0255 72.3521C15.9438 72.8294 13.4896 73.9362 12.8463 74.4269C12.6759 74.5399 12.5105 74.6604 12.3409 74.7746C12.1131 74.98 11.8963 75.1975 11.6918 75.4263C11.5845 75.5939 11.4964 75.7391 11.4402 75.8348C10.2169 79.4898 10.8966 85.3644 11.5253 91.8153C11.748 94.9076 12.4691 98.5537 13.4354 104.513C13.6135 105.355 13.8304 106.19 14.0761 107.015C18.4701 106.523 29.5905 101.862 36.4689 99.1227C43.2958 96.3118 60.2422 88.9836 71.9817 82.4001C73.1949 81.7529 74.4099 81.1073 75.6188 80.4539C74.2777 81.6905 72.917 82.9055 71.5563 84.1207C56.963 96.8688 40.4481 107.218 22.6255 114.785C16.878 117.269 9.13594 118.98 5.42351 112.434C3.81252 109.128 3.49641 105.413 2.99586 101.818C2.9416 101.57 2.90532 101.319 2.88731 101.066C2.23152 96.2528 1.51279 91.4412 1.1521 86.5945C0.705673 79.0882 0.450363 69.8986 7.95805 65.7421Z" fill="#2371F9"/>
</svg>
