<svg width="68" height="69" viewBox="0 0 68 69" fill="none" xmlns="http://www.w3.org/2000/svg">
<path d="M5.37975 62.6233C7.08672 64.3327 9.11466 65.688 11.347 66.6112C13.5794 67.5345 15.9722 68.0076 18.388 68.0032C20.8043 68.0074 23.1976 67.5343 25.4305 66.6111C27.6635 65.6879 29.6921 64.3327 31.3999 62.6233L41.8064 52.213L36.6032 47.0097L26.1966 57.42C24.1229 59.4844 21.3159 60.6434 18.3898 60.6434C15.4637 60.6434 12.6567 59.4844 10.583 57.42C8.51682 55.3472 7.35658 52.5399 7.35658 49.6132C7.35658 46.6865 8.51682 43.8792 10.583 41.8064L20.9933 31.3999L15.79 26.1966L5.37975 36.6032C1.93471 40.0565 0 44.7353 0 49.6132C0 54.4911 1.93471 59.1699 5.37975 62.6233ZM62.6233 31.3999C66.0665 27.9456 68 23.2671 68 18.3898C68 13.5125 66.0665 8.83407 62.6233 5.37975C59.1699 1.93471 54.4911 0 49.6132 0C44.7353 0 40.0565 1.93471 36.6032 5.37975L26.1966 15.79L31.3999 20.9933L41.8064 10.583C43.8801 8.51861 46.6871 7.3596 49.6132 7.3596C52.5393 7.3596 55.3463 8.51861 57.42 10.583C59.4862 12.6558 60.6465 15.4631 60.6465 18.3898C60.6465 21.3165 59.4862 24.1238 57.42 26.1966L47.0097 36.6032L52.213 41.8064L62.6233 31.3999Z" fill="#2371F9"/>
<path d="M20.9902 52.217L15.7832 47.0137L47.014 15.7866L52.2173 20.9936L20.9902 52.217Z" fill="#2371F9"/>
</svg>
